<?xml version="1.0" encoding="UTF-8" standalone="no"?>
<!-- Created with Inkscape (http://www.inkscape.org/) -->

<svg
   xmlns:dc="http://purl.org/dc/elements/1.1/"
   xmlns:cc="http://creativecommons.org/ns#"
   xmlns:rdf="http://www.w3.org/1999/02/22-rdf-syntax-ns#"
   xmlns:svg="http://www.w3.org/2000/svg"
   xmlns="http://www.w3.org/2000/svg"
   xmlns:sodipodi="http://sodipodi.sourceforge.net/DTD/sodipodi-0.dtd"
   xmlns:inkscape="http://www.inkscape.org/namespaces/inkscape"
   width="798"
   height="798"
   viewBox="0 0 211.1375 211.1375"
   version="1.1"
   id="svg8"
   inkscape:version="0.92.3 (2405546, 2018-03-11)"
   sodipodi:docname="logo-dark.svg">
  <defs
     id="defs2" />
  <sodipodi:namedview
     id="base"
     pagecolor="#ffffff"
     bordercolor="#666666"
     borderopacity="1.0"
     inkscape:pageopacity="0.0"
     inkscape:pageshadow="2"
     inkscape:zoom="0.66666667"
     inkscape:cx="375"
     inkscape:cy="440.51831"
     inkscape:document-units="mm"
     inkscape:current-layer="layer1"
     showgrid="false"
     units="px"
     inkscape:window-width="1299"
     inkscape:window-height="713"
     inkscape:window-x="67"
     inkscape:window-y="27"
     inkscape:window-maximized="1" />
  <metadata
     id="metadata5">
    <rdf:RDF>
      <cc:Work
         rdf:about="">
        <dc:format>image/svg+xml</dc:format>
        <dc:type
           rdf:resource="http://purl.org/dc/dcmitype/StillImage" />
        <dc:title></dc:title>
      </cc:Work>
    </rdf:RDF>
  </metadata>
  <g
     inkscape:label="Layer 1"
     inkscape:groupmode="layer"
     id="layer1"
     transform="translate(0,-85.862518)">
    <g
       id="g4648"
       style="fill:#003354;fill-opacity:1"
       transform="translate(-0.13229167,2.6458337)">
      <path
         inkscape:connector-curvature="0"
         id="path4577"
         mask="none"
         d="m 104.07422,121.25391 c -11.919917,0.30551 -23.931005,3.50318 -34.970704,9.87695 -35.327037,20.39607 -47.458575,65.67101 -27.0625,100.99805 4.749671,8.22667 11.0401,15.46233 18.527343,21.30859 l 4.333985,-5.55078 C 58.128114,242.5972 52.43603,236.05262 48.138672,228.60938 29.645364,196.57803 40.593652,155.72182 72.625,137.22852 c 32.03135,-18.49331 72.8856,-7.54503 91.37891,24.48632 16.699,28.92354 9.54026,65.66187 -16.79688,86.19922 l 4.33008,5.55274 c 29.0655,-22.6649 36.99337,-63.35361 18.56445,-95.27344 -14.0223,-24.28734 -39.80353,-37.61158 -66.02734,-36.93945 z"
         style="color:#003354;font-style:normal;font-variant:normal;font-weight:normal;font-stretch:normal;font-size:medium;line-height:normal;font-family:sans-serif;font-variant-ligatures:normal;font-variant-position:normal;font-variant-caps:normal;font-variant-numeric:normal;font-variant-alternates:normal;font-feature-settings:normal;text-indent:0;text-align:start;text-decoration:none;text-decoration-line:none;text-decoration-style:solid;text-decoration-color:#000000;letter-spacing:normal;word-spacing:normal;text-transform:none;writing-mode:lr-tb;direction:ltr;text-orientation:mixed;dominant-baseline:auto;baseline-shift:baseline;text-anchor:start;white-space:normal;shape-padding:0;clip-rule:nonzero;display:inline;overflow:visible;visibility:visible;opacity:1;isolation:auto;mix-blend-mode:normal;color-interpolation:sRGB;color-interpolation-filters:linearRGB;solid-color:#000000;solid-opacity:1;vector-effect:none;fill:#003354;fill-opacity:1;fill-rule:nonzero;stroke:none;stroke-width:7.04154587;stroke-linecap:butt;stroke-linejoin:miter;stroke-miterlimit:4;stroke-dasharray:none;stroke-dashoffset:0;stroke-opacity:1;color-rendering:auto;image-rendering:auto;shape-rendering:auto;text-rendering:auto;enable-background:accumulate" />
      <path
         inkscape:connector-curvature="0"
         id="path4614"
         d="m 127.61428,236.43785 c -12.68866,5.75742 -28.071318,5.23262 -41.209278,-1.40592 -2.720958,-1.37489 -6.992151,-4.29382 -9.503005,-6.49435 l -2.198756,-1.92701 -5.727431,3.2404 -5.727432,3.24039 -0.44218,-4.13693 -0.442181,-4.13693 3.617421,-2.15636 3.617422,-2.15636 -1.952352,-3.38158 -1.952351,-3.38157 -5.135362,2.8983 -5.135363,2.8983 -0.442133,-4.13696 -0.442134,-4.13696 4.197843,-2.49098 4.197844,-2.49098 -0.528727,-2.53264 c -3.184588,-15.25445 1.685561,-31.89718 12.609967,-43.09198 3.256029,-3.33662 5.31231,-4.91219 9.787433,-7.49935 3.601661,-2.08219 4.388366,-2.46135 7.166712,-3.45408 8.995833,-3.2143 19.104583,-3.59631 28.306823,-1.06971 l 2.45887,0.67512 0.41373,4.08302 c 0.22755,2.24566 0.34296,4.09739 0.25646,4.11495 -0.0865,0.0176 -1.32584,-0.36347 -2.7541,-0.84675 -10.59423,-3.58478 -20.83759,-2.74471 -30.739408,2.52099 -3.783948,2.01227 -6.303984,3.85835 -9.220188,6.75438 -7.988298,7.93301 -12.167528,18.87069 -11.500082,30.09745 0.148963,2.50566 0.548318,5.3717 0.812173,5.82871 0.126356,0.21885 4.423878,-2.19846 27.542861,-15.49254 l 27.393144,-15.75186 0.4421,4.13698 0.4421,4.13699 -26.607832,15.42564 -26.607832,15.42564 0.221732,0.65545 c 0.287426,0.84965 2.640341,4.92503 3.232438,5.59877 l 0.456742,0.51971 25.110922,-14.43414 25.11093,-14.43414 0.44209,4.13698 0.4421,4.13698 -22.8664,13.26567 c -15.585346,9.04165 -22.830638,13.32763 -22.754067,13.46026 0.06179,0.10702 0.824526,0.7689 1.694971,1.47084 10.118655,8.1599 24.038626,10.79354 36.384016,6.88381 10.87993,-3.44562 19.75365,-11.67063 24.2329,-22.46137 0.80046,-1.92834 2.31017,-7.42178 2.55584,-9.30002 l 0.12429,-0.9502 2.8403,4.91472 2.8403,4.91473 -0.74131,1.99297 c -4.31888,11.61099 -13.28587,21.31568 -24.32257,26.32352 z"
         style="fill:#003354;fill-opacity:1;stroke-width:0.21735881" />
      <rect
         ry="6.8035712"
         y="241.54495"
         x="1.008971"
         height="13.607142"
         width="209.79192"
         id="rect851"
         style="fill:#003354;fill-opacity:1;stroke:none;stroke-width:10.98457527;stroke-miterlimit:4;stroke-dasharray:none;stroke-opacity:1" />
    </g>
  </g>
</svg>
